<?xml version="1.0" encoding="utf-8"?>
<!-- Generator: Adobe Illustrator 16.0.0, SVG Export Plug-In . SVG Version: 6.00 Build 0)  -->
<!DOCTYPE svg PUBLIC "-//W3C//DTD SVG 1.1//EN" "http://www.w3.org/Graphics/SVG/1.1/DTD/svg11.dtd">
<svg version="1.1" id="Layer_1" xmlns="http://www.w3.org/2000/svg" xmlns:xlink="http://www.w3.org/1999/xlink" x="0px" y="0px"
	 width="50px" height="50px" viewBox="0 0 50 50" enable-background="new 0 0 50 50" xml:space="preserve">
<g>
	<path fill-rule="evenodd" clip-rule="evenodd" fill="#FFFFFF" d="M34.324,7.4c0,0.105,0,0.178,0,0.25c0,1.847,0,3.695,0,5.542
		c0,0.256,0,0.257-0.266,0.257c-0.883,0-1.768-0.012-2.65,0.003c-1.136,0.021-1.973,0.543-2.444,1.579
		c-0.134,0.293-0.193,0.638-0.211,0.963c-0.032,0.61-0.002,1.222-0.014,1.833c-0.004,0.19,0.063,0.234,0.24,0.233
		c1.688-0.006,3.376-0.004,5.063-0.004c0.281,0,0.281,0.001,0.281,0.285c0,1.847-0.004,3.694,0.005,5.542
		c0.001,0.208-0.064,0.253-0.26,0.252c-1.681-0.007-3.362-0.004-5.043-0.004c-0.283,0-0.283,0-0.283,0.278
		c0,5.941,0,11.881,0,17.822c0,0.073,0.018,0.152-0.006,0.217c-0.021,0.058-0.08,0.114-0.137,0.142
		c-0.048,0.023-0.117,0.006-0.177,0.006c-2.438,0-4.877,0-7.316,0c-0.326,0-0.326,0-0.326-0.319c0-5.947,0-11.895,0-17.841
		c0-0.303,0-0.303-0.299-0.303c-1.501,0-3.003,0-4.505,0c-0.261,0-0.261-0.001-0.262-0.268c0-1.847-0.001-3.694-0.001-5.542
		c0-0.263,0.001-0.265,0.267-0.265c1.509,0,3.017,0,4.525,0c0.274,0,0.274,0,0.274-0.271c0-1.149-0.041-2.301,0.009-3.448
		c0.121-2.76,1.41-4.821,3.833-6.148c1.026-0.562,2.14-0.802,3.315-0.794c2.033,0.014,4.066,0.004,6.1,0.004
		C34.124,7.4,34.209,7.4,34.324,7.4z"/>
</g>
</svg>
