<?xml version="1.0" encoding="utf-8"?>
<!-- Generator: Adobe Illustrator 16.0.0, SVG Export Plug-In . SVG Version: 6.00 Build 0)  -->
<!DOCTYPE svg PUBLIC "-//W3C//DTD SVG 1.1//EN" "http://www.w3.org/Graphics/SVG/1.1/DTD/svg11.dtd">
<svg version="1.1" id="Layer_1" xmlns="http://www.w3.org/2000/svg" xmlns:xlink="http://www.w3.org/1999/xlink" x="0px" y="0px"
	 width="367px" height="237px" viewBox="0 0 367 237" enable-background="new 0 0 367 237" xml:space="preserve">
<g>
	<g>
		<path fill="#10AC8E" d="M301.898,175.682c-0.061,8.246-6.783,14.879-15.031,14.812c-8.242-0.057-14.875-6.78-14.826-15.021
			c0.062-8.242,6.793-14.881,15.035-14.822C295.324,160.705,301.957,167.434,301.898,175.682z"/>
		<path fill="#10AC8E" d="M277.945,141.361c-0.104-3.877-1.385-11.943-6.459-19.896c-3.811-5.962-8.146-10.872-11.988-14.93
			c-3.801-4.004-10.604-9.964-12.1-18.473c-1.082-6.192-0.551-14.122,7.729-17.333c6.479-2.521,12-0.375,16.711,3.338
			c5.592,4.405,10.393,10.185,23.781,18.775c-4.51-4.307-10.91-10.322-17.758-21.104c-6.369-10.024-9.451-16.146-9.658-26.329
			c-0.229-11.765,7.355-21.144,18.768-21.144c9.646,0,17.18,8.449,17.785,21.302c0.324,6.975,0.375,11.56,1.717,15.909
			c2.939,9.55,5.929,13.715,9.064,18.771c3.096,4.97,16.647,20.558,2.672,32.264c-5.77,4.839-15.604,2.989-21.373,0.266
			c-10.547-4.979-24.062-15.004-24.062-15.004s8.768,7.941,13.709,14.893c4.514,6.316,5.979,10.678,7.205,15.471
			c1.75,6.854,1.436,11.021,1.436,13.146c0,6.771-3.062,10.589-8.146,10.589C281.734,151.866,278.119,147.879,277.945,141.361z"/>
	</g>
</g>
<g>
	<path fill="#FFFFFF" d="M47.64,189.377v-71.724h10.562c2.229,0,3.701,1.05,4.4,3.146l1.188,5.662
		c1.443-1.49,2.967-2.843,4.572-4.062c1.605-1.205,3.311-2.252,5.104-3.143c1.799-0.882,3.721-1.563,5.771-2.026
		c2.045-0.465,4.285-0.698,6.705-0.698c3.912,0,7.389,0.665,10.414,1.992c3.027,1.33,5.562,3.192,7.588,5.594
		c2.021,2.399,3.564,5.271,4.613,8.6c1.049,3.333,1.568,7.005,1.568,11.009v45.647H92.861v-45.647c0-4.381-1.021-7.77-3.043-10.17
		c-2.027-2.396-5.066-3.604-9.125-3.604c-2.982,0-5.777,0.681-8.387,2.025c-2.609,1.354-5.088,3.195-7.408,5.521v51.872H47.626
		v0.001h0.006v0.002L47.64,189.377L47.64,189.377z"/>
	<path fill="#FFFFFF" d="M168.648,131.635c-0.469,0.747-0.957,1.271-1.475,1.575c-0.506,0.306-1.166,0.454-1.956,0.454
		c-0.84,0-1.732-0.23-2.688-0.698c-0.957-0.47-2.062-0.985-3.316-1.569c-1.262-0.582-2.688-1.106-4.301-1.58
		c-1.609-0.463-3.506-0.688-5.699-0.688c-3.402,0-6.084,0.729-8.039,2.163c-1.955,1.44-2.938,3.332-2.938,5.663
		c0,1.538,0.508,2.831,1.506,3.878c1.006,1.051,2.328,1.972,3.986,2.765c1.648,0.786,3.529,1.504,5.625,2.131
		c2.098,0.627,4.238,1.313,6.434,2.062c2.191,0.745,4.328,1.599,6.43,2.552c2.1,0.959,3.979,2.172,5.627,3.635
		c1.648,1.472,2.982,3.23,3.98,5.285c1.006,2.049,1.504,4.516,1.504,7.399c0,3.45-0.629,6.642-1.887,9.543
		c-1.264,2.911-3.105,5.437-5.521,7.562c-2.422,2.11-5.42,3.771-8.981,4.959c-3.564,1.188-7.648,1.774-12.268,1.774
		c-2.471,0-4.885-0.218-7.232-0.664c-2.359-0.438-4.613-1.06-6.783-1.851c-2.164-0.793-4.172-1.725-6.01-2.793
		c-1.848-1.076-3.463-2.238-4.861-3.496l3.988-6.573c0.514-0.795,1.115-1.397,1.812-1.812c0.691-0.418,1.582-0.634,2.66-0.634
		c1.064,0,2.08,0.308,3.037,0.908c0.959,0.608,2.061,1.26,3.322,1.959c1.254,0.696,2.73,1.354,4.436,1.962
		c1.705,0.604,3.854,0.904,6.473,0.904c2.045,0,3.811-0.243,5.27-0.729c1.473-0.492,2.68-1.135,3.646-1.929
		c0.949-0.792,1.648-1.711,2.096-2.763c0.438-1.049,0.656-2.133,0.656-3.25c0-1.682-0.5-3.051-1.496-4.122
		c-1.008-1.069-2.332-2.003-3.982-2.797c-1.656-0.791-3.543-1.505-5.666-2.134c-2.125-0.629-4.287-1.314-6.5-2.063
		c-2.215-0.742-4.379-1.613-6.502-2.623c-2.123-0.996-4.01-2.269-5.668-3.812c-1.645-1.533-2.979-3.42-3.98-5.658
		c-0.998-2.231-1.5-4.938-1.5-8.104c0-2.937,0.584-5.731,1.748-8.394c1.16-2.649,2.873-4.979,5.135-6.947
		c2.264-1.984,5.078-3.568,8.459-4.762c3.385-1.186,7.279-1.779,11.709-1.779c4.939,0,9.439,0.815,13.498,2.445
		c4.055,1.63,7.432,3.773,10.131,6.436L168.648,131.635z"/>
	<path fill="#FFFFFF" d="M184.494,189.377V81.612h17.258v43.806c2.795-2.659,5.879-4.805,9.232-6.436
		c3.352-1.628,7.291-2.445,11.811-2.445c3.91,0,7.379,0.665,10.414,1.992c3.031,1.329,5.557,3.191,7.588,5.593
		c2.025,2.399,3.562,5.271,4.605,8.601c1.055,3.332,1.572,7,1.572,11.01v45.648h-17.271v-45.648c0-4.381-1.016-7.769-3.039-10.17
		c-2.031-2.397-5.066-3.604-9.121-3.604c-2.979,0-5.771,0.682-8.396,2.025c-2.604,1.354-5.078,3.195-7.404,5.521v51.872
		L184.494,189.377L184.494,189.377z"/>
</g>
<rect x="-1028.418" y="73.86" fill="#EE4378" width="236.886" height="306.56"/>
<rect x="-1028.417" y="404.788" fill="#25A8E0" width="236.886" height="306.559"/>
<rect x="-756.943" y="404.788" fill="#70485B" width="236.886" height="306.559"/>
<rect x="-651.011" y="-407.602" fill="#FBED1F" width="237.511" height="307.368"/>
<rect x="546.001" y="-235.348" fill-rule="evenodd" clip-rule="evenodd" fill="#10AC8E" width="612" height="791.997"/>
</svg>
