<?xml version="1.0" encoding="utf-8"?>
<!-- Generator: Adobe Illustrator 16.0.0, SVG Export Plug-In . SVG Version: 6.00 Build 0)  -->
<!DOCTYPE svg PUBLIC "-//W3C//DTD SVG 1.1//EN" "http://www.w3.org/Graphics/SVG/1.1/DTD/svg11.dtd">
<svg version="1.1" id="Layer_1" xmlns="http://www.w3.org/2000/svg" xmlns:xlink="http://www.w3.org/1999/xlink" x="0px" y="0px"
	 width="61.151px" height="130.936px" viewBox="0 0 61.151 130.936" enable-background="new 0 0 61.151 130.936"
	 xml:space="preserve">
<g>
	<path fill-rule="evenodd" clip-rule="evenodd" fill="#333333" d="M39.77,109.782c-0.041,5.441-4.475,9.81-9.916,9.759
		c-5.43-0.035-9.811-4.466-9.773-9.902c0.04-5.433,4.477-9.809,9.912-9.773C35.436,99.904,39.808,104.334,39.77,109.782z"/>
	<path fill="#333333" d="M23.975,87.151c-0.072-2.562-0.916-7.884-4.26-13.123c-2.514-3.932-5.376-7.174-7.91-9.844
		C9.299,61.54,4.815,57.613,3.83,52.001c-0.721-4.09-0.363-9.314,5.096-11.436c4.277-1.664,7.912-0.246,11.016,2.204
		c3.691,2.901,6.858,6.717,15.688,12.38c-2.979-2.833-7.197-6.804-11.709-13.919c-4.201-6.609-6.238-10.646-6.372-17.36
		c-0.149-7.757,4.851-13.943,12.378-13.943c6.359,0,11.324,5.572,11.729,14.049c0.213,4.599,0.24,7.619,1.133,10.491
		c1.938,6.301,3.905,9.047,5.975,12.378c2.043,3.277,10.979,13.559,1.762,21.276c-3.804,3.188-10.291,1.97-14.094,0.177
		c-6.953-3.285-15.871-9.896-15.871-9.896s5.777,5.239,9.041,9.817c2.972,4.169,3.943,7.043,4.75,10.211
		c1.159,4.51,0.945,7.265,0.945,8.663c0,4.463-2.018,6.982-5.369,6.982C26.469,94.076,24.082,91.44,23.975,87.151z"/>
</g>
<g>
</g>
<g>
</g>
<g>
</g>
<g>
</g>
<g>
</g>
<g>
</g>
<g>
</g>
<g>
</g>
<g>
</g>
<g>
</g>
<g>
</g>
<g>
</g>
<g>
</g>
<g>
</g>
<g>
</g>
</svg>
