<?xml version="1.0" encoding="utf-8"?>
<!-- Generator: Adobe Illustrator 16.0.0, SVG Export Plug-In . SVG Version: 6.00 Build 0)  -->
<!DOCTYPE svg PUBLIC "-//W3C//DTD SVG 1.1//EN" "http://www.w3.org/Graphics/SVG/1.1/DTD/svg11.dtd">
<svg version="1.1" id="Layer_1" xmlns="http://www.w3.org/2000/svg" xmlns:xlink="http://www.w3.org/1999/xlink" x="0px" y="0px"
	 width="423.021px" height="130.936px" viewBox="0 0 423.021 130.936" enable-background="new 0 0 423.021 130.936"
	 xml:space="preserve">
<g>
	<path fill="#333333" d="M9.524,99.802v-27.09h1.416c0.472,0,0.745,0.228,0.817,0.68l0.245,4.085
		c1.235-1.561,2.673-2.817,4.315-3.771c1.642-0.952,3.472-1.43,5.486-1.43c1.488,0,2.799,0.236,3.934,0.709
		c1.134,0.473,2.073,1.152,2.817,2.041c0.744,0.891,1.308,1.961,1.688,3.214c0.382,1.252,0.572,2.667,0.572,4.247v17.315h-2.586
		V82.486c0-2.541-0.581-4.534-1.742-5.976c-1.163-1.443-2.94-2.165-5.337-2.165c-1.779,0-3.431,0.458-4.955,1.375
		s-2.886,2.174-4.083,3.771v20.311H9.524z"/>
	<path fill="#333333" d="M48.467,72.275c1.524,0,2.936,0.265,4.233,0.79c1.298,0.527,2.424,1.294,3.376,2.301
		c0.953,1.007,1.698,2.246,2.233,3.716c0.535,1.472,0.803,3.158,0.803,5.064c0,0.399-0.06,0.672-0.177,0.816
		c-0.118,0.146-0.304,0.219-0.558,0.219H38.83v0.518c0,2.031,0.235,3.821,0.708,5.363c0.472,1.542,1.144,2.836,2.015,3.879
		c0.871,1.044,1.924,1.829,3.159,2.355c1.234,0.526,2.613,0.789,4.138,0.789c1.361,0,2.541-0.148,3.54-0.449
		c0.998-0.299,1.837-0.635,2.518-1.007c0.681-0.371,1.221-0.708,1.62-1.007c0.399-0.301,0.69-0.449,0.871-0.449
		c0.236,0,0.417,0.091,0.545,0.271l0.708,0.871c-0.436,0.546-1.012,1.053-1.729,1.524c-0.717,0.474-1.516,0.877-2.396,1.213
		c-0.88,0.335-1.825,0.603-2.832,0.803c-1.008,0.199-2.019,0.299-3.036,0.299c-1.852,0-3.54-0.322-5.064-0.966
		c-1.524-0.645-2.833-1.584-3.925-2.818c-1.091-1.233-1.936-2.744-2.531-4.534c-0.597-1.786-0.895-3.832-0.895-6.138
		c0-1.943,0.277-3.735,0.831-5.378c0.553-1.643,1.352-3.058,2.396-4.247c1.043-1.188,2.323-2.119,3.839-2.79
		C44.823,72.612,46.543,72.275,48.467,72.275z M48.507,74.21c-1.395,0-2.646,0.217-3.751,0.653
		c-1.105,0.435-2.062,1.062-2.868,1.878s-1.458,1.797-1.957,2.941c-0.499,1.143-0.83,2.422-0.992,3.839h17.833
		c0-1.452-0.199-2.755-0.597-3.907c-0.399-1.153-0.961-2.128-1.686-2.928c-0.725-0.799-1.595-1.411-2.61-1.838
		C50.862,74.423,49.739,74.21,48.507,74.21z"/>
	<path fill="#333333" d="M61.252,72.712h1.987c0.254,0,0.463,0.067,0.626,0.204c0.164,0.136,0.272,0.285,0.327,0.449l6.833,21.372
		c0.126,0.418,0.227,0.817,0.3,1.197c0.072,0.382,0.145,0.764,0.217,1.145c0.091-0.381,0.19-0.763,0.3-1.145
		c0.109-0.38,0.235-0.779,0.381-1.197l7.27-21.562c0.126-0.399,0.381-0.599,0.762-0.599h1.062c0.399,0,0.663,0.199,0.79,0.599
		l7.16,21.562c0.272,0.817,0.49,1.607,0.653,2.368c0.072-0.381,0.15-0.766,0.231-1.156c0.083-0.39,0.195-0.794,0.341-1.212
		l6.86-21.372c0.145-0.437,0.454-0.653,0.926-0.653h1.906l-9.066,27.09h-1.906c-0.291,0-0.5-0.19-0.626-0.572L81.154,77.23
		c-0.091-0.271-0.172-0.544-0.245-0.816c-0.073-0.271-0.136-0.544-0.19-0.816c-0.055,0.272-0.114,0.545-0.177,0.816
		c-0.064,0.272-0.141,0.545-0.231,0.816l-7.515,21.999c-0.109,0.382-0.327,0.572-0.653,0.572h-1.825L61.252,72.712z"/>
	<path fill="#333333" d="M130.405,76.061c-0.127,0.255-0.327,0.382-0.599,0.382c-0.201,0-0.459-0.114-0.776-0.342
		c-0.318-0.226-0.735-0.48-1.252-0.761c-0.517-0.281-1.153-0.536-1.905-0.764c-0.753-0.227-1.675-0.34-2.764-0.34
		c-0.98,0-1.875,0.141-2.682,0.423c-0.808,0.281-1.498,0.658-2.07,1.13c-0.571,0.472-1.017,1.021-1.333,1.647
		c-0.318,0.625-0.476,1.283-0.476,1.973c0,0.854,0.217,1.562,0.653,2.124s1.008,1.045,1.715,1.442
		c0.708,0.4,1.511,0.745,2.409,1.035c0.898,0.291,1.82,0.581,2.764,0.871c0.944,0.291,1.865,0.613,2.763,0.967
		s1.702,0.794,2.41,1.32c0.708,0.526,1.28,1.171,1.715,1.933c0.436,0.764,0.653,1.688,0.653,2.777c0,1.18-0.213,2.278-0.64,3.295
		s-1.043,1.896-1.852,2.641c-0.807,0.743-1.801,1.334-2.981,1.77c-1.18,0.436-2.522,0.654-4.029,0.654
		c-1.905,0-3.548-0.305-4.928-0.913c-1.38-0.607-2.614-1.401-3.703-2.382l0.626-0.926c0.091-0.145,0.191-0.254,0.299-0.327
		c0.11-0.072,0.263-0.109,0.463-0.109c0.236,0,0.526,0.146,0.872,0.437c0.344,0.29,0.793,0.604,1.347,0.939
		c0.554,0.335,1.244,0.648,2.07,0.938c0.826,0.291,1.847,0.437,3.063,0.437c1.143,0,2.151-0.16,3.021-0.477
		c0.871-0.317,1.597-0.75,2.178-1.294c0.581-0.544,1.021-1.185,1.321-1.919c0.299-0.735,0.449-1.512,0.449-2.328
		c0-0.907-0.218-1.66-0.653-2.259c-0.436-0.601-1.008-1.107-1.715-1.526c-0.708-0.417-1.511-0.771-2.41-1.062
		c-0.898-0.29-1.824-0.58-2.777-0.871c-0.953-0.29-1.879-0.607-2.777-0.952c-0.898-0.345-1.702-0.781-2.409-1.308
		s-1.28-1.166-1.715-1.919s-0.654-1.691-0.654-2.818c0-0.961,0.208-1.887,0.626-2.777c0.417-0.889,1.012-1.669,1.783-2.341
		c0.771-0.671,1.711-1.206,2.818-1.605c1.107-0.399,2.35-0.601,3.729-0.601c1.651,0,3.118,0.236,4.397,0.709
		c1.28,0.473,2.455,1.197,3.526,2.178L130.405,76.061z"/>
	<path fill="#333333" d="M155.773,76.333c-0.091,0.091-0.177,0.169-0.259,0.23c-0.081,0.065-0.195,0.097-0.34,0.097
		c-0.182,0-0.432-0.123-0.749-0.368c-0.318-0.244-0.739-0.512-1.266-0.804c-0.527-0.289-1.185-0.557-1.974-0.803
		c-0.79-0.245-1.747-0.368-2.873-0.368c-1.561,0-2.945,0.278-4.151,0.831c-1.208,0.555-2.224,1.348-3.05,2.383
		s-1.457,2.287-1.892,3.757s-0.654,3.122-0.654,4.955c0,1.906,0.223,3.594,0.668,5.063c0.444,1.471,1.075,2.709,1.892,3.717
		c0.816,1.008,1.805,1.775,2.968,2.302c1.161,0.526,2.45,0.788,3.866,0.788c1.307,0,2.4-0.154,3.281-0.463
		c0.88-0.308,1.606-0.644,2.178-1.008c0.571-0.361,1.024-0.697,1.361-1.007c0.336-0.309,0.604-0.462,0.803-0.462
		c0.236,0,0.417,0.091,0.545,0.271l0.708,0.871c-0.418,0.546-0.944,1.053-1.58,1.524c-0.635,0.474-1.352,0.882-2.15,1.226
		c-0.799,0.345-1.665,0.612-2.6,0.803c-0.936,0.191-1.911,0.286-2.927,0.286c-1.725,0-3.299-0.312-4.724-0.939
		c-1.425-0.625-2.65-1.533-3.675-2.722c-1.025-1.189-1.824-2.646-2.396-4.37c-0.571-1.724-0.857-3.685-0.857-5.881
		c0-2.068,0.273-3.957,0.817-5.663c0.545-1.705,1.338-3.177,2.382-4.411c1.044-1.233,2.323-2.191,3.838-2.872
		c1.516-0.68,3.254-1.021,5.214-1.021c1.761,0,3.326,0.282,4.697,0.845c1.37,0.563,2.563,1.325,3.58,2.287L155.773,76.333z"/>
	<path fill="#333333" d="M161.608,99.802V60.188h2.587V77.34c1.252-1.542,2.682-2.772,4.287-3.689
		c1.607-0.915,3.408-1.375,5.405-1.375c1.488,0,2.799,0.236,3.934,0.709c1.134,0.473,2.073,1.152,2.818,2.041
		c0.744,0.891,1.307,1.961,1.688,3.214c0.381,1.252,0.571,2.667,0.571,4.247v17.315h-2.586V82.486c0-2.541-0.581-4.534-1.742-5.976
		c-1.162-1.443-2.94-2.165-5.337-2.165c-1.779,0-3.43,0.458-4.955,1.375c-1.524,0.917-2.886,2.174-4.083,3.771v20.311H161.608z"/>
	<path fill="#333333" d="M200.694,72.275c1.941,0,3.68,0.333,5.213,0.995c1.534,0.663,2.828,1.602,3.88,2.817
		c1.052,1.217,1.855,2.682,2.41,4.397c0.553,1.715,0.83,3.635,0.83,5.758c0,2.124-0.277,4.038-0.83,5.745
		c-0.555,1.706-1.357,3.167-2.41,4.383c-1.053,1.217-2.347,2.151-3.88,2.805c-1.533,0.652-3.271,0.979-5.213,0.979
		c-1.943,0-3.681-0.327-5.214-0.979c-1.534-0.653-2.832-1.588-3.894-2.805c-1.062-1.216-1.87-2.677-2.423-4.383
		c-0.554-1.707-0.831-3.621-0.831-5.745c0-2.123,0.277-4.043,0.831-5.758c0.553-1.716,1.361-3.181,2.423-4.397
		c1.062-1.216,2.359-2.154,3.894-2.817C197.013,72.608,198.75,72.275,200.694,72.275z M200.694,98.113
		c1.615,0,3.026-0.277,4.233-0.83c1.207-0.553,2.214-1.349,3.021-2.382c0.808-1.035,1.412-2.283,1.811-3.744
		c0.399-1.461,0.599-3.1,0.599-4.914c0-1.796-0.2-3.431-0.599-4.9c-0.399-1.472-1.003-2.727-1.811-3.771s-1.815-1.847-3.021-2.41
		c-1.208-0.562-2.619-0.845-4.233-0.845c-1.616,0-3.027,0.282-4.234,0.845c-1.207,0.563-2.215,1.366-3.022,2.41
		c-0.808,1.044-1.416,2.299-1.824,3.771c-0.408,1.47-0.613,3.104-0.613,4.9c0,1.814,0.205,3.453,0.613,4.914
		s1.016,2.709,1.824,3.744c0.808,1.033,1.815,1.829,3.022,2.382S199.078,98.113,200.694,98.113z"/>
	<path fill="#333333" d="M229.612,72.275c1.941,0,3.68,0.333,5.213,0.995c1.533,0.663,2.827,1.602,3.881,2.817
		c1.051,1.217,1.854,2.682,2.408,4.397c0.554,1.715,0.831,3.635,0.831,5.758c0,2.124-0.277,4.038-0.831,5.745
		c-0.554,1.706-1.357,3.167-2.408,4.383c-1.054,1.217-2.348,2.151-3.881,2.805c-1.533,0.652-3.271,0.979-5.213,0.979
		c-1.943,0-3.681-0.327-5.215-0.979c-1.533-0.653-2.831-1.588-3.893-2.805c-1.062-1.216-1.87-2.677-2.423-4.383
		c-0.554-1.707-0.831-3.621-0.831-5.745c0-2.123,0.277-4.043,0.831-5.758c0.553-1.716,1.36-3.181,2.423-4.397
		c1.062-1.216,2.359-2.154,3.893-2.817C225.932,72.608,227.669,72.275,229.612,72.275z M229.612,98.113
		c1.614,0,3.025-0.277,4.233-0.83c1.206-0.553,2.214-1.349,3.021-2.382c0.808-1.035,1.411-2.283,1.811-3.744s0.599-3.1,0.599-4.914
		c0-1.796-0.199-3.431-0.599-4.9c-0.399-1.472-1.003-2.727-1.811-3.771s-1.815-1.847-3.021-2.41
		c-1.208-0.562-2.619-0.845-4.233-0.845c-1.617,0-3.027,0.282-4.234,0.845c-1.207,0.563-2.215,1.366-3.021,2.41
		c-0.809,1.044-1.416,2.299-1.824,3.771c-0.408,1.47-0.613,3.104-0.613,4.9c0,1.814,0.205,3.453,0.613,4.914
		s1.016,2.709,1.824,3.744c0.807,1.033,1.814,1.829,3.021,2.382S227.995,98.113,229.612,98.113z"/>
	<path fill="#333333" d="M250.755,60.188v39.613h-2.588V60.188H250.755z"/>
	<path fill="#333333" d="M270.627,99.802V60.188h2.587V77.34c1.252-1.542,2.682-2.772,4.287-3.689
		c1.607-0.915,3.408-1.375,5.405-1.375c1.488,0,2.799,0.236,3.935,0.709c1.133,0.473,2.072,1.152,2.816,2.041
		c0.744,0.891,1.308,1.961,1.688,3.214c0.382,1.252,0.571,2.667,0.571,4.247v17.315h-2.586V82.486c0-2.541-0.581-4.534-1.742-5.976
		c-1.162-1.443-2.939-2.165-5.336-2.165c-1.779,0-3.432,0.458-4.955,1.375c-1.525,0.917-2.887,2.174-4.084,3.771v20.311H270.627z"/>
	<path fill="#333333" d="M302.976,63.374c0,0.326-0.068,0.63-0.204,0.912c-0.136,0.281-0.312,0.53-0.53,0.748
		c-0.219,0.218-0.473,0.391-0.763,0.518s-0.599,0.19-0.926,0.19s-0.636-0.063-0.925-0.19c-0.291-0.127-0.545-0.3-0.764-0.518
		c-0.217-0.218-0.39-0.467-0.517-0.748c-0.128-0.282-0.19-0.586-0.19-0.912c0-0.327,0.062-0.641,0.19-0.939
		c0.127-0.3,0.3-0.559,0.517-0.776c0.219-0.217,0.473-0.391,0.764-0.518c0.289-0.127,0.598-0.19,0.925-0.19s0.636,0.063,0.926,0.19
		s0.544,0.301,0.763,0.518c0.218,0.218,0.395,0.477,0.53,0.776C302.907,62.733,302.976,63.047,302.976,63.374z M301.833,72.712
		v27.09h-2.588v-27.09H301.833z"/>
	<path fill="#333333" d="M318.473,72.249c1.179,0,2.272,0.145,3.28,0.437c1.008,0.289,1.91,0.697,2.709,1.224h6.943v0.899
		c0,0.454-0.255,0.698-0.763,0.734l-4.112,0.299c0.508,0.691,0.899,1.467,1.172,2.329c0.271,0.862,0.408,1.783,0.408,2.763
		c0,1.307-0.236,2.491-0.708,3.553c-0.472,1.062-1.13,1.97-1.974,2.723c-0.845,0.754-1.855,1.34-3.036,1.757
		c-1.18,0.418-2.486,0.627-3.92,0.627c-1.562,0-2.978-0.236-4.247-0.708c-0.763,0.435-1.361,0.952-1.797,1.551
		s-0.654,1.18-0.654,1.743c0,0.781,0.272,1.38,0.817,1.797c0.544,0.417,1.266,0.722,2.164,0.912s1.924,0.312,3.077,0.367
		c1.152,0.055,2.322,0.113,3.512,0.177c1.188,0.064,2.359,0.178,3.512,0.341c1.152,0.162,2.179,0.449,3.077,0.857
		c0.897,0.408,1.62,0.98,2.164,1.715c0.545,0.735,0.817,1.711,0.817,2.927c0,1.125-0.282,2.206-0.845,3.24
		c-0.563,1.035-1.374,1.951-2.437,2.75c-1.062,0.799-2.346,1.438-3.853,1.919c-1.507,0.481-3.194,0.722-5.063,0.722
		c-1.906,0-3.576-0.195-5.01-0.585c-1.434-0.391-2.637-0.917-3.607-1.579c-0.971-0.663-1.701-1.431-2.191-2.301
		c-0.49-0.871-0.735-1.797-0.735-2.777c0-1.435,0.472-2.668,1.416-3.703c0.943-1.033,2.241-1.832,3.893-2.396
		c-0.907-0.309-1.629-0.753-2.164-1.333c-0.535-0.582-0.804-1.389-0.804-2.424c0-0.382,0.072-0.779,0.219-1.198
		c0.145-0.417,0.362-0.831,0.652-1.239c0.291-0.408,0.641-0.794,1.049-1.156c0.408-0.363,0.885-0.69,1.43-0.98
		c-1.289-0.743-2.293-1.732-3.009-2.968c-0.718-1.234-1.075-2.676-1.075-4.329c0-1.306,0.23-2.49,0.693-3.552
		s1.117-1.975,1.961-2.737c0.844-0.762,1.865-1.352,3.062-1.769C315.696,72.457,317.021,72.249,318.473,72.249z M328.519,101.626
		c0-0.853-0.223-1.539-0.668-2.057c-0.444-0.516-1.038-0.92-1.783-1.211c-0.744-0.29-1.602-0.494-2.572-0.612
		s-1.987-0.204-3.049-0.259c-1.062-0.055-2.129-0.109-3.199-0.162c-1.07-0.055-2.068-0.165-2.994-0.327
		c-0.69,0.272-1.33,0.584-1.92,0.939c-0.59,0.353-1.094,0.752-1.512,1.197c-0.417,0.445-0.744,0.935-0.98,1.47
		c-0.235,0.535-0.354,1.121-0.354,1.757c0,0.799,0.205,1.538,0.613,2.218c0.408,0.682,1.008,1.271,1.797,1.771
		s1.756,0.895,2.898,1.185c1.145,0.289,2.461,0.436,3.949,0.436c1.379,0,2.662-0.155,3.852-0.463
		c1.189-0.309,2.223-0.745,3.104-1.307c0.881-0.563,1.57-1.235,2.07-2.016C328.269,103.404,328.519,102.552,328.519,101.626z
		 M318.473,87.822c1.161,0,2.196-0.168,3.103-0.504c0.908-0.336,1.671-0.803,2.288-1.401c0.616-0.6,1.084-1.316,1.401-2.152
		c0.317-0.834,0.477-1.759,0.477-2.776c0-1.016-0.162-1.946-0.489-2.791c-0.327-0.844-0.804-1.565-1.431-2.164
		c-0.625-0.6-1.389-1.062-2.286-1.389c-0.898-0.327-1.919-0.489-3.062-0.489s-2.169,0.162-3.077,0.489
		c-0.907,0.326-1.674,0.789-2.301,1.389c-0.625,0.599-1.102,1.32-1.429,2.164c-0.327,0.845-0.49,1.775-0.49,2.791
		c0,1.018,0.163,1.942,0.49,2.776c0.327,0.836,0.804,1.553,1.429,2.152c0.627,0.599,1.394,1.065,2.301,1.401
		C316.304,87.654,317.329,87.822,318.473,87.822z"/>
	<path fill="#333333" d="M336.036,99.802V60.188h2.588V77.34c1.252-1.542,2.682-2.772,4.287-3.689
		c1.606-0.915,3.408-1.375,5.404-1.375c1.488,0,2.8,0.236,3.935,0.709c1.134,0.473,2.073,1.152,2.817,2.041
		c0.744,0.891,1.308,1.961,1.688,3.214c0.383,1.252,0.572,2.667,0.572,4.247v17.315h-2.586V82.486c0-2.541-0.582-4.534-1.742-5.976
		c-1.162-1.443-2.94-2.165-5.337-2.165c-1.778,0-3.431,0.458-4.955,1.375s-2.886,2.174-4.083,3.771v20.311H336.036z"/>
</g>
<g>
</g>
<g>
</g>
<g>
</g>
<g>
</g>
<g>
</g>
<g>
</g>
<g>
</g>
<g>
</g>
<g>
</g>
<g>
</g>
<g>
</g>
<g>
</g>
<g>
</g>
<g>
</g>
<g>
</g>
</svg>
