<?xml version="1.0" encoding="utf-8"?>
<!-- Generator: Adobe Illustrator 16.0.0, SVG Export Plug-In . SVG Version: 6.00 Build 0)  -->
<!DOCTYPE svg PUBLIC "-//W3C//DTD SVG 1.1//EN" "http://www.w3.org/Graphics/SVG/1.1/DTD/svg11.dtd">
<svg version="1.1" id="Layer_1" xmlns="http://www.w3.org/2000/svg" xmlns:xlink="http://www.w3.org/1999/xlink" x="0px" y="0px"
	 width="50px" height="50px" viewBox="0 0 50 50" enable-background="new 0 0 50 50" xml:space="preserve">
<g>
	<path fill="#FFFFFF" d="M34.115,16.347c0,2.015,0,3.957,0,5.937c-0.182,0.009-0.346,0.026-0.51,0.026
		c-2.224,0.002-4.442,0.007-6.664-0.004c-0.334-0.001-0.476,0.062-0.474,0.442c0.021,3.312,0.009,6.625,0.024,9.938
		c0.013,2.227,1.261,3.475,3.509,3.578c1.813,0.086,3.456-0.443,4.995-1.361c0.121-0.069,0.24-0.143,0.408-0.241
		c0.021,0.146,0.05,0.237,0.05,0.333c0.002,1.531-0.003,3.064,0.007,4.598c0.001,0.229-0.081,0.346-0.286,0.442
		c-2.508,1.182-5.141,1.821-7.918,1.681c-2.295-0.115-4.398-0.814-6.179-2.347c-1.465-1.261-2-2.9-2.008-4.754
		c-0.018-3.91-0.011-7.82-0.015-11.729c0-0.167,0-0.334,0-0.568c-1.513,0-2.996,0-4.514,0c0-0.312,0-0.558,0-0.802
		c0-1.208,0.006-2.416-0.005-3.624c-0.002-0.233,0.077-0.338,0.295-0.417c0.633-0.23,1.272-0.456,1.882-0.74
		c2.402-1.123,3.774-3.098,4.497-5.574c0.196-0.669,0.288-1.369,0.429-2.055c0.023-0.112,0.048-0.224,0.074-0.345
		c1.581,0,3.136,0,4.751,0c0,2.525,0,5.037,0,7.59C29.039,16.347,31.553,16.347,34.115,16.347z"/>
</g>
</svg>
